<svg width="25" height="25" viewBox="0 0 25 25" fill="none" xmlns="http://www.w3.org/2000/svg">
<path d="M9.375 12.5C9.375 13.3288 9.70424 14.1237 10.2903 14.7097C10.8763 15.2958 11.6712 15.625 12.5 15.625C13.3288 15.625 14.1237 15.2958 14.7097 14.7097C15.2958 14.1237 15.625 13.3288 15.625 12.5" stroke="#222222" stroke-linecap="round"/>
<path d="M4.6875 9.0236C4.6875 8.42248 4.6875 8.12191 4.77332 7.83848C4.85913 7.55505 5.02585 7.30497 5.3593 6.8048L5.58337 6.4687C6.16465 5.59677 6.4553 5.1608 6.89748 4.92415C7.33967 4.6875 7.86364 4.6875 8.91157 4.6875H16.0884C17.1364 4.6875 17.6603 4.6875 18.1025 4.92415C18.5447 5.1608 18.8353 5.59677 19.4166 6.4687L19.6407 6.8048C19.9741 7.30497 20.1409 7.55505 20.2267 7.83848C20.3125 8.12191 20.3125 8.42248 20.3125 9.0236V16.3125C20.3125 18.1981 20.3125 19.1409 19.7267 19.7267C19.1409 20.3125 18.1981 20.3125 16.3125 20.3125H8.6875C6.80188 20.3125 5.85907 20.3125 5.27329 19.7267C4.6875 19.1409 4.6875 18.1981 4.6875 16.3125V9.0236Z" stroke="#222222"/>
<path d="M4.6875 9.89581H20.3125" stroke="#222222" stroke-linecap="round"/>
</svg>
