<svg width="25" height="25" viewBox="0 0 25 25" fill="none" xmlns="http://www.w3.org/2000/svg">
<path d="M6.28366 14.8843C6.27417 14.8938 6.26474 14.9032 6.25537 14.9125C6.0929 15.0746 5.94907 15.2182 5.8477 15.3972C5.74634 15.5762 5.69727 15.7734 5.64183 15.9961C5.63813 16.011 5.63439 16.026 5.63061 16.0412L4.92542 18.8619C4.9232 18.8708 4.92097 18.8797 4.91873 18.8886C4.87949 19.0453 4.83758 19.2127 4.82383 19.3532C4.8087 19.5079 4.81222 19.769 5.02164 19.9784C5.23105 20.1878 5.4921 20.1913 5.64683 20.1762C5.78737 20.1625 5.95471 20.1206 6.1114 20.0813C6.12034 20.0791 6.12924 20.0768 6.13809 20.0746L8.95888 19.3694C8.974 19.3656 8.989 19.3619 9.00389 19.3582C9.22663 19.3028 9.42381 19.2537 9.60284 19.1523C9.78187 19.051 9.92539 18.9071 10.0875 18.7447C10.0984 18.7338 10.1093 18.7229 10.1203 18.7118L17.6894 11.1428L17.7126 11.1195C18.0261 10.8061 18.2962 10.5361 18.4833 10.2907C18.6839 10.0278 18.8358 9.73539 18.8358 9.375C18.8358 9.01461 18.6839 8.72219 18.4833 8.45927C18.2962 8.21394 18.0261 7.94391 17.7126 7.6305L17.6894 7.60723L17.3928 7.31066L17.3695 7.28736C17.0561 6.97393 16.7861 6.70388 16.5408 6.5167C16.2779 6.3161 15.9854 6.16421 15.625 6.16421C15.2647 6.16421 14.9722 6.3161 14.7093 6.5167C14.464 6.70389 14.1939 6.97396 13.8805 7.2874L13.8573 7.31066L6.2882 14.8797C6.28669 14.8812 6.28517 14.8828 6.28366 14.8843Z" stroke="#222222"/>
<path d="M13.0209 7.81252L16.1459 5.72919L19.2709 8.85419L17.1875 11.9792L13.0209 7.81252Z" fill="#222222"/>
</svg>
