<svg width="35" height="35" viewBox="0 0 35 35" fill="none" xmlns="http://www.w3.org/2000/svg">
<path d="M13.8542 21.1458L13.8542 16.7708" stroke="white" stroke-linecap="round"/>
<path d="M21.1458 21.1458L21.1458 16.7708" stroke="white" stroke-linecap="round"/>
<path d="M4.375 9.47919H30.625H29.5208C27.6352 9.47919 26.6924 9.47919 26.1066 10.065C25.5208 10.6508 25.5208 11.5936 25.5208 13.4792V24.4375C25.5208 26.3231 25.5208 27.2659 24.935 27.8517C24.3493 28.4375 23.4065 28.4375 21.5208 28.4375H13.4792C11.5935 28.4375 10.6507 28.4375 10.065 27.8517C9.47917 27.2659 9.47917 26.3231 9.47917 24.4375V13.4792C9.47917 11.5936 9.47917 10.6508 8.89338 10.065C8.30759 9.47919 7.36478 9.47919 5.47917 9.47919H4.375Z" stroke="white" stroke-linecap="round"/>
<path d="M13.8541 5.10453C13.8541 5.10453 14.5833 3.64584 17.5 3.64584C20.4166 3.64584 21.1458 5.10418 21.1458 5.10418" stroke="white" stroke-linecap="round"/>
</svg>
