<svg width="25" height="25" viewBox="0 0 25 25" fill="none" xmlns="http://www.w3.org/2000/svg">
<path d="M7.29163 7.42914V6.69541C7.29163 4.54952 7.29163 3.47657 7.98122 2.87849C8.67082 2.2804 9.73298 2.43214 11.8573 2.73561L16.7235 3.43078C19.1796 3.78166 20.4077 3.9571 21.1413 4.80299C21.875 5.64888 21.875 6.88941 21.875 9.37048V15.6296C21.875 18.1107 21.875 19.3512 21.1413 20.1971C20.4077 21.043 19.1796 21.2184 16.7235 21.5693L11.8573 22.2645C9.73298 22.5679 8.67082 22.7197 7.98122 22.1216C7.29163 21.5235 7.29163 20.4506 7.29163 18.3047V17.7771" stroke="#222222"/>
<path d="M16.6666 12.5L17.0571 12.1876L17.3069 12.5L17.0571 12.8123L16.6666 12.5ZM4.16663 13C3.89048 13 3.66663 12.7761 3.66663 12.5C3.66663 12.2238 3.89048 12 4.16663 12V13ZM12.8904 6.97928L17.0571 12.1876L16.2762 12.8123L12.1095 7.60397L12.8904 6.97928ZM17.0571 12.8123L12.8904 18.0206L12.1095 17.3959L16.2762 12.1876L17.0571 12.8123ZM16.6666 13H4.16663V12H16.6666V13Z" fill="#222222"/>
</svg>
