<svg width="25" height="25" viewBox="0 0 25 25" fill="none" xmlns="http://www.w3.org/2000/svg">
<path d="M19.2708 22.3958L13.0208 6.77083M22.3958 4.6875L2.60413 8.85417" stroke="#7E869E" stroke-opacity="0.25"/>
<path d="M2.60413 5.80418C2.60413 4.68408 2.60413 4.12403 2.82211 3.69621C3.01386 3.31988 3.31982 3.01392 3.69614 2.82217C4.12397 2.60419 4.68402 2.60419 5.80413 2.60419H19.1958C20.3159 2.60419 20.8759 2.60419 21.3038 2.82217C21.6801 3.01392 21.9861 3.31988 22.1778 3.69621C22.3958 4.12403 22.3958 4.68408 22.3958 5.80419V19.1959C22.3958 20.316 22.3958 20.876 22.1778 21.3038C21.9861 21.6802 21.6801 21.9861 21.3038 22.1779C20.8759 22.3959 20.3159 22.3959 19.1958 22.3959H5.80412C4.68402 22.3959 4.12397 22.3959 3.69614 22.1779C3.31982 21.9861 3.01386 21.6802 2.82211 21.3038C2.60413 20.876 2.60413 20.316 2.60413 19.1959V5.80418Z" stroke="#222222" stroke-linecap="round"/>
<path d="M13.0208 15.6557C13.0208 17.9182 10.7636 19.5034 9.80128 20.0764C9.53636 20.2341 9.21355 20.2341 8.94864 20.0764C7.98637 19.5034 5.72913 17.9182 5.72913 15.6557C5.72913 13.4498 7.49566 11.9792 9.37496 11.9792C11.3194 11.9792 13.0208 13.4498 13.0208 15.6557Z" stroke="#222222"/>
<circle cx="9.37504" cy="15.625" r="1.04167" fill="#222222"/>
</svg>
